<?xml version="1.0" encoding="utf-8"?>
<!-- Generator: Adobe Illustrator 23.0.2, SVG Export Plug-In . SVG Version: 6.00 Build 0)  -->
<svg version="1.1" id="Layer_1" xmlns="http://www.w3.org/2000/svg" xmlns:xlink="http://www.w3.org/1999/xlink" x="0px" y="0px"
	 viewBox="0 0 21.2 21.2" style="enable-background:new 0 0 21.2 21.2;" xml:space="preserve">
<title>instagram</title>
<g>
	<g id="Layer_1-2">
		<path d="M21.2,14.6c0,3.7-3,6.6-6.6,6.6H6.6c-3.7,0-6.6-3-6.6-6.6V6.6C0,3,3,0,6.6,0h8c3.7,0,6.6,3,6.6,6.6L21.2,14.6z M14.6,2
			H6.6C4.1,2,2,4.1,2,6.6v8c0,2.6,2.1,4.6,4.6,4.6l0,0h8c2.6,0,4.6-2.1,4.6-4.6v-8C19.3,4.1,17.2,2,14.6,2C14.6,2,14.6,2,14.6,2z
			 M10.7,15.9c-2.9,0-5.3-2.4-5.3-5.3s2.4-5.3,5.3-5.3S16,7.7,16,10.6c0,0,0,0,0,0C16,13.5,13.6,15.9,10.7,15.9
			C10.7,15.9,10.7,15.9,10.7,15.9z M16.4,5.6c-0.4,0-0.7-0.3-0.7-0.7l0,0c0-0.4,0.3-0.7,0.7-0.7c0.4,0,0.7,0.3,0.7,0.7
			C17.1,5.3,16.8,5.6,16.4,5.6z M10.7,7.3c-1.8,0-3.3,1.5-3.3,3.3s1.5,3.3,3.3,3.3c1.8,0,3.3-1.5,3.3-3.3c0,0,0,0,0,0
			C14,8.8,12.5,7.3,10.7,7.3z"/>
	</g>
</g>
</svg>
