<?xml version="1.0" encoding="utf-8"?>
<!-- Generator: Adobe Illustrator 24.0.2, SVG Export Plug-In . SVG Version: 6.00 Build 0)  -->
<svg version="1.1" id="Layer_1" xmlns="http://www.w3.org/2000/svg" xmlns:xlink="http://www.w3.org/1999/xlink" x="0px" y="0px"
	 viewBox="0 0 745.5 130.4" style="enable-background: new 0 0 745.5 130.4;" xml:space="preserve">
<style type="text/css">
  .st0 { fill: #000; }
</style>
<g>
	<path class="st0" d="M93,110.7H72.8V59.3L50,96.8h-2.3L24.8,59.3v51.4H4.7V22.4h20.2l24,39.2l24-39.2H93V110.7z"/>
	<path class="st0" d="M129.6,66.5c0-26,19.3-45.9,45.9-45.9c16,0,30.2,8,37.9,20.4L196,51.1c-3.9-6.8-11.5-10.9-20.4-10.9
		c-15.7,0-25.7,10.5-25.7,26.2s10.1,26.3,25.7,26.3c9,0,16.7-4,20.4-10.9L213.4,92c-7.6,12.5-21.7,20.4-37.9,20.4
		C148.9,112.5,129.6,92.5,129.6,66.5z"/>
	<path class="st0" d="M334.3,69.1c0,27-18.8,43.4-43.5,43.4c-27.8,0-47.7-20.4-47.7-45.8c0-25.6,20.3-46.1,46.3-46.1
		c16.9,0,31.2,8.3,38.6,20.2l-17.2,9.8c-3.7-5.8-11.6-10.3-21.6-10.3c-14.9,0-26,11-26,26.5c0,15,10.6,26,27.8,26
		c11.7,0,19.4-5.2,22.6-13.6H290V61.5h44.3V69.1z"/>
</g>
<g>
	<path class="st0" d="M458,19v33.6h-7.7V39.2h-10.5v13.3h-7.7V19h7.7v12.9h10.5V19H458z"/>
	<path class="st0" d="M486.2,28.6v24H479v-2.3c-1.3,1.8-3.7,2.9-6.9,2.9c-4.8,0-9-3.5-9-9.9V28.6h7.2v13.7c0,3,1.9,4.4,4.2,4.4
		c2.6,0,4.5-1.5,4.5-4.9V28.6H486.2z"/>
	<path class="st0" d="M527.4,37.8v14.7h-7.2V38.4c0-2.4-1.1-3.9-3.5-3.9c-2.4,0-3.7,1.7-3.7,4.5v13.5h-7.2V38.4
		c0-2.4-1.1-3.9-3.5-3.9c-2.4,0-3.7,1.7-3.7,4.5v13.5h-7.2v-24h7.2v2.2c1.1-1.6,3.2-2.9,6.4-2.9c2.8,0,4.9,1.2,6.3,3.2
		c1.3-1.9,3.5-3.2,6.9-3.2C523.8,27.9,527.4,31.8,527.4,37.8z"/>
	<path class="st0" d="M557,28.6v24h-7.2v-2.3c-1.6,1.8-3.9,2.9-7.1,2.9c-6.3,0-11.5-5.5-11.5-12.7c0-7.1,5.2-12.7,11.5-12.7
		c3.2,0,5.6,1.1,7.1,2.9v-2.3H557z M549.8,40.6c0-3.6-2.4-5.8-5.7-5.8c-3.3,0-5.7,2.3-5.7,5.8c0,3.6,2.4,5.8,5.7,5.8
		C547.4,46.4,549.8,44.1,549.8,40.6z"/>
	<path class="st0" d="M585.2,37.8v14.7H578V38.9c0-3-1.9-4.4-4.2-4.4c-2.6,0-4.5,1.5-4.5,4.9v13.1h-7.2v-24h7.2v2.3
		c1.3-1.8,3.7-2.9,6.9-2.9C581.1,27.9,585.2,31.3,585.2,37.8z"/>
	<path class="st0" d="M453.3,102.7v7.4h-21.1V76.5H453v7.4h-13.2v5.6h12v7.3h-12v5.9H453.3z"/>
	<path class="st0" d="M480.3,95.3V110h-7.2V96.4c0-3-1.9-4.4-4.2-4.4c-2.6,0-4.5,1.5-4.5,4.9V110h-7.2v-24h7.2v2.3
		c1.3-1.8,3.7-2.9,6.9-2.9C476.2,85.4,480.3,88.9,480.3,95.3z"/>
	<path class="st0" d="M509.9,86.1v22.8c0,8.1-6.3,11.5-12.7,11.5c-5,0-9.2-1.9-11.4-5.8l6.1-3.5c0.9,1.7,2.3,3,5.5,3
		c3.3,0,5.4-1.7,5.4-5.1v-2.2c-1.6,2-3.9,3.1-7,3.1c-6.8,0-11.8-5.6-11.8-12.2c0-6.6,5-12.2,11.8-12.2c3.1,0,5.4,1.1,7,3.1v-2.4
		H509.9z M502.9,97.6c0-3.3-2.4-5.6-5.8-5.6c-3.4,0-5.8,2.3-5.8,5.6c0,3.3,2.4,5.6,5.8,5.6C500.5,103.1,502.9,100.9,502.9,97.6z"/>
	<path class="st0" d="M539.7,86.1v24h-7.2v-2.3c-1.6,1.8-3.9,2.9-7.1,2.9c-6.3,0-11.5-5.5-11.5-12.7c0-7.1,5.2-12.7,11.5-12.7
		c3.2,0,5.6,1.1,7.1,2.9v-2.3H539.7z M532.5,98.1c0-3.6-2.4-5.8-5.7-5.8c-3.3,0-5.7,2.3-5.7,5.8c0,3.6,2.4,5.8,5.7,5.8
		C530.1,103.9,532.5,101.7,532.5,98.1z"/>
	<path class="st0" d="M569.6,86.1v22.8c0,8.1-6.3,11.5-12.7,11.5c-5,0-9.2-1.9-11.4-5.8l6.1-3.5c0.9,1.7,2.3,3,5.5,3
		c3.3,0,5.4-1.7,5.4-5.1v-2.2c-1.6,2-3.9,3.1-7,3.1c-6.8,0-11.8-5.6-11.8-12.2c0-6.6,5-12.2,11.8-12.2c3.1,0,5.4,1.1,7,3.1v-2.4
		H569.6z M562.6,97.6c0-3.3-2.4-5.6-5.8-5.6c-3.4,0-5.8,2.3-5.8,5.6c0,3.3,2.4,5.6,5.8,5.6C560.2,103.1,562.6,100.9,562.6,97.6z"/>
	<path class="st0" d="M587,104.3c2,0,3.6-0.8,4.6-1.8l5.8,3.3c-2.4,3.3-5.9,4.9-10.4,4.9c-8.2,0-13.3-5.5-13.3-12.7
		c0-7.1,5.2-12.7,12.8-12.7c7,0,12.2,5.4,12.2,12.7c0,1-0.1,2-0.3,2.9h-17C582.2,103.4,584.4,104.3,587,104.3z M591.4,95.6
		c-0.8-2.8-2.9-3.8-5.1-3.8c-2.7,0-4.5,1.3-5.2,3.8H591.4z"/>
	<path class="st0" d="M638.6,95.3V110h-7.2V95.9c0-2.4-1.1-3.9-3.5-3.9c-2.4,0-3.7,1.7-3.7,4.5V110H617V95.9c0-2.4-1.1-3.9-3.5-3.9
		c-2.4,0-3.7,1.7-3.7,4.5V110h-7.2v-24h7.2v2.2c1.1-1.6,3.2-2.9,6.4-2.9c2.8,0,4.9,1.1,6.3,3.2c1.3-1.9,3.5-3.2,7-3.2
		C635,85.4,638.6,89.3,638.6,95.3z"/>
	<path class="st0" d="M655.7,104.3c2,0,3.6-0.8,4.6-1.8l5.8,3.3c-2.4,3.3-5.9,4.9-10.4,4.9c-8.2,0-13.3-5.5-13.3-12.7
		c0-7.1,5.2-12.7,12.7-12.7c7,0,12.2,5.4,12.2,12.7c0,1-0.1,2-0.3,2.9h-17C650.8,103.4,653.1,104.3,655.7,104.3z M660.1,95.6
		c-0.8-2.8-2.9-3.8-5.1-3.8c-2.7,0-4.6,1.3-5.2,3.8H660.1z"/>
	<path class="st0" d="M694.3,95.3V110h-7.2V96.4c0-3-1.9-4.4-4.2-4.4c-2.6,0-4.5,1.5-4.5,4.9V110h-7.2v-24h7.2v2.3
		c1.3-1.8,3.7-2.9,6.9-2.9C690.2,85.4,694.3,88.9,694.3,95.3z"/>
	<path class="st0" d="M708.4,93v8.5c0,2.1,1.8,2.3,4.9,2.1v6.5c-9.4,1-12.1-1.9-12.1-8.6V93h-3.8v-6.9h3.8v-4.5l7.2-2.2v6.7h4.9V93
		H708.4z"/>
</g>
<rect x="378" y="4.9" class="st0" width="1.6" height="120.7"/>
<g>
	<path class="st0" d="M738.6,102.2c0.7,0.4,1.3,1,1.7,1.7c0.4,0.7,0.6,1.5,0.6,2.4c0,0.9-0.2,1.7-0.6,2.4c-0.4,0.7-1,1.3-1.7,1.7
		c-0.7,0.4-1.5,0.6-2.4,0.6c-0.9,0-1.7-0.2-2.4-0.6c-0.7-0.4-1.3-1-1.7-1.7c-0.4-0.7-0.6-1.5-0.6-2.4c0-0.9,0.2-1.7,0.6-2.4
		c0.4-0.7,1-1.3,1.7-1.7c0.7-0.4,1.5-0.6,2.4-0.6S737.8,101.8,738.6,102.2z M738.3,110c0.6-0.4,1.1-0.9,1.5-1.5
		c0.4-0.6,0.6-1.4,0.6-2.1c0-0.8-0.2-1.5-0.5-2.1c-0.4-0.6-0.9-1.1-1.5-1.5c-0.6-0.4-1.3-0.6-2.1-0.6c-0.8,0-1.5,0.2-2.2,0.6
		c-0.6,0.4-1.2,0.9-1.5,1.5c-0.4,0.6-0.6,1.3-0.6,2.1s0.2,1.5,0.6,2.1c0.4,0.6,0.9,1.2,1.5,1.5c0.6,0.4,1.3,0.6,2.1,0.6
		C736.9,110.5,737.6,110.3,738.3,110z M738.2,106.4c-0.2,0.3-0.5,0.5-0.9,0.6l1.3,1.9h-0.7l-1.2-1.8c-0.1,0-0.2,0-0.3,0H735v1.8
		h-0.7v-5.4h2.1c0.7,0,1.2,0.2,1.6,0.5c0.4,0.3,0.6,0.8,0.6,1.3C738.5,105.8,738.4,106.2,738.2,106.4z M737.4,106.3
		c0.3-0.2,0.4-0.5,0.4-0.9c0-0.4-0.1-0.7-0.4-0.9c-0.3-0.2-0.6-0.3-1.1-0.3H735v2.4h1.4C736.8,106.6,737.2,106.5,737.4,106.3z"/>
</g>
</svg>
